<svg width="30" height="30" viewBox="0 0 30 30" fill="none" xmlns="http://www.w3.org/2000/svg">
<g clip-path="url(#clip0_93_1127)">
<path d="M7 16.941L10.0366 25.2249C10.0366 25.2249 10.4163 26 10.8228 26C11.2294 26 17.276 19.8002 17.276 19.8002L24 7L7.10835 14.8027L7 16.941Z" fill="#C8DAEA"/>
<path d="M11.5514 19L11.0095 25.161C11.0095 25.161 10.7827 27.0488 12.547 25.161C14.3112 23.2732 16 21.8175 16 21.8175" fill="#A9C6D8"/>
<path d="M7.63828 16.8235L1.54064 14.861C1.54064 14.861 0.811901 14.569 1.04655 13.9067C1.09486 13.7702 1.1923 13.654 1.4838 13.4543C2.83487 12.524 26.4911 4.1252 26.4911 4.1252C26.4911 4.1252 27.159 3.90288 27.553 4.05075C27.6504 4.08055 27.7381 4.13538 27.8071 4.20964C27.876 4.28391 27.9238 4.37493 27.9455 4.4734C27.988 4.64732 28.0058 4.82626 27.9983 5.00505C27.9965 5.15971 27.9775 5.30306 27.9631 5.52785C27.8191 7.82412 23.5075 24.9619 23.5075 24.9619C23.5075 24.9619 23.2495 25.9648 22.3252 25.9991C22.0981 26.0064 21.8718 25.9684 21.6599 25.8874C21.4479 25.8064 21.2547 25.6841 21.0916 25.5277C19.2779 23.9867 13.0091 19.8252 11.6238 18.91C11.5926 18.889 11.5663 18.8616 11.5467 18.8296C11.5271 18.7977 11.5146 18.762 11.5102 18.7249C11.4908 18.6284 11.597 18.5089 11.597 18.5089C11.597 18.5089 22.5126 8.92485 22.8031 7.91873C22.8256 7.84078 22.7406 7.80233 22.6265 7.83647C21.9015 8.09993 9.33353 15.9397 7.94644 16.805C7.84659 16.8348 7.74106 16.8412 7.63828 16.8235Z" fill="white"/>
</g>
<defs>
<clipPath id="clip0_93_1127">
<rect width="30" height="30" fill="white"/>
</clipPath>
</defs>
</svg>
